<?xml version="1.0" encoding="UTF-8"?>
<svg version="1.1" xmlns="http://www.w3.org/2000/svg" width="952" height="1296">
<path d="M0 0 C1.17788086 0.39445312 2.35576172 0.78890625 3.56933594 1.1953125 C20.4641427 6.9114272 36.8207381 13.5031051 53 21 C54.03753418 21.47695312 55.07506836 21.95390625 56.14404297 22.4453125 C89.7978523 37.98183426 121.6629869 57.32158801 151 80 C152.25632547 80.95206702 153.51284694 81.90387543 154.76953125 82.85546875 C156.05525324 83.84040776 157.34041794 84.82607473 158.625 85.8125 C159.22997314 86.26898926 159.83494629 86.72547852 160.45825195 87.19580078 C163.52743104 89.57752241 165.42540019 91.46906505 167 95 C166.3306543 95.9708252 165.66130859 96.94165039 164.97167969 97.94189453 C158.35012258 107.55439353 151.78285936 117.20206201 145.25 126.875 C144.25202019 128.35160783 143.25397161 129.82816918 142.25585938 131.3046875 C140.19309645 134.35626772 138.13062208 137.40804265 136.06835938 140.45996094 C131.68958036 146.93957143 127.30716513 153.41672158 122.92486572 159.89395142 C120.53570301 163.42529663 118.14675892 166.95678972 115.7578125 170.48828125 C115.28378998 171.18900253 114.80976746 171.88972382 114.32138062 172.61167908 C110.94055207 177.60943031 107.56006738 182.60741404 104.1796875 187.60546875 C99.87875852 193.96458423 95.57713144 200.32322694 91.27487183 206.68144226 C88.3631958 210.98467508 85.45247782 215.28855422 82.54232788 219.59281921 C80.6136909 222.44496749 78.68428809 225.29659712 76.75469971 228.14810181 C75.84776395 229.48868565 74.94113849 230.82947948 74.03485107 232.17050171 C65.47762436 244.831844 65.47762436 244.831844 61 251 C56.89301814 250.3819071 53.84894881 248.113476 50.48828125 245.8359375 C49.17274547 244.95963172 47.85715052 244.08341476 46.54150391 243.20727539 C45.50766571 242.51433884 45.50766571 242.51433884 44.45294189 241.80740356 C-32.48521191 190.31967758 -124.61075427 145.8746303 -219.4375 162.5625 C-220.38550476 162.72386444 -221.33350952 162.88522888 -222.3102417 163.05148315 C-245.4645501 167.05823583 -265.13162739 175.22280778 -282 192 C-282.62261719 192.5878125 -283.24523437 193.175625 -283.88671875 193.78125 C-296.88605844 207.10192169 -301.25753595 226.41423489 -301.2487793 244.37939453 C-300.97129785 265.29630521 -294.89957284 282.63949209 -280.4375 298.0625 C-239.60182296 337.46205996 -165.85419177 349.45296062 -112.9375 363.5 C-31.35646576 385.16677316 55.91280325 410.34402282 120 468 C120.5765332 468.51481934 121.15306641 469.02963867 121.74707031 469.56005859 C128.24124994 475.37528489 134.44777551 481.26161846 140 488 C140.7321875 488.83273437 141.464375 489.66546875 142.21875 490.5234375 C165.1926529 517.05974939 179.99800265 548.98665959 188 583 C188.19287598 583.79051758 188.38575195 584.58103516 188.58447266 585.39550781 C205.18488585 654.4891195 195.61898865 735.63290897 162 798 C161.66178223 798.64163086 161.32356445 799.28326172 160.97509766 799.94433594 C152.97201731 815.08650657 143.18430904 829.03448619 132 842 C131.36578125 842.74507812 130.7315625 843.49015625 130.078125 844.2578125 C118.76910964 857.1886634 106.5831483 869.57746422 92.70654297 879.7421875 C90.95360856 881.03419295 89.22810434 882.35744528 87.50390625 883.6875 C77.51481641 891.31200301 66.92289522 897.80440405 56 904 C55.17258301 904.46937988 54.34516602 904.93875977 53.49267578 905.42236328 C3.24893252 933.56556262 -54.07482632 945.57018648 -111 950 C-112.3619751 950.10803955 -112.3619751 950.10803955 -113.75146484 950.21826172 C-172.59602765 954.64363578 -232.81912091 947.79159414 -290 934 C-291.13356934 933.72881348 -292.26713867 933.45762695 -293.43505859 933.17822266 C-347.48569911 920.04633425 -400.2433652 898.54021112 -448 870 C-449.31218506 869.21810303 -449.31218506 869.21810303 -450.65087891 868.42041016 C-470.17743347 856.71599114 -488.9863516 843.91919742 -507 830 C-507.5971582 829.54173828 -508.19431641 829.08347656 -508.80957031 828.61132812 C-520.98334767 819.25709048 -532.58736322 809.26533467 -544 799 C-542.30684554 795.10003747 -539.7518217 791.92676575 -537.125 788.625 C-536.40123169 787.70895996 -536.40123169 787.70895996 -535.6628418 786.77441406 C-531.65359757 781.73819989 -527.49087017 776.84442767 -523.27856445 771.9777832 C-519.72561819 767.86869339 -516.2918408 763.68307143 -512.921875 759.421875 C-509.33623264 754.90338259 -505.65876306 750.45931292 -502 746 C-500.49971683 744.16689838 -498.99971592 742.33356573 -497.5 740.5 C-488.5 729.5 -488.5 729.5 -486.23046875 726.7265625 C-484.79500065 724.97182216 -483.36006204 723.21664845 -481.92578125 721.4609375 C-476.68794837 715.0516115 -471.42822781 708.66056804 -466.16455078 702.27246094 C-461.43013237 696.52544938 -456.71073971 690.76644221 -452 685 C-450.50014304 683.16654964 -449.0001406 681.33321829 -447.5 679.5 C-446.38625 678.13875 -446.38625 678.13875 -445.25 676.75 C-438.5 668.5 -438.5 668.5 -436.26953125 665.78515625 C-434.68977266 663.84648521 -433.12577879 661.89490556 -431.57421875 659.93359375 C-430.78660156 658.94488281 -429.99898438 657.95617187 -429.1875 656.9375 C-428.47980469 656.03902344 -427.77210938 655.14054688 -427.04296875 654.21484375 C-425.053945 652.05848339 -423.61278352 651.2023097 -421 650 C-420.56880859 650.36125977 -420.13761719 650.72251953 -419.69335938 651.09472656 C-409.3604122 659.73097544 -398.86060064 668.03916172 -388 676 C-386.9469165 676.77875488 -386.9469165 676.77875488 -385.87255859 677.57324219 C-306.32186475 736.37391231 -206.19145998 776.36363067 -105.8203125 761.9765625 C-81.03175374 758.00018459 -54.88905206 750.35574386 -36 733 C-34.74123047 731.87851563 -34.74123047 731.87851563 -33.45703125 730.734375 C-19.40706151 717.55588599 -11.40013806 699.35068525 -10.6640625 680.1171875 C-10.37354017 660.13464906 -12.65437233 641.34849798 -26.3125 625.6875 C-27.8542386 624.10451087 -29.41659983 622.54131645 -31 621 C-31.71414063 620.26523437 -32.42828125 619.53046875 -33.1640625 618.7734375 C-74.13986039 578.92412202 -148.85051624 566.46670827 -202.27734375 552.17578125 C-252.82489821 538.64028622 -303.14979109 524.4678497 -351 503 C-352.53696533 502.31284912 -352.53696533 502.31284912 -354.10498047 501.61181641 C-378.25648501 490.70211652 -401.2543424 477.55846065 -422 461 C-422.62616211 460.50081055 -423.25232422 460.00162109 -423.89746094 459.48730469 C-438.55080237 447.65889391 -451.98580372 434.29436921 -463 419 C-463.61319092 418.16130371 -463.61319092 418.16130371 -464.23876953 417.30566406 C-506.24290865 359.29440742 -513.80831286 279.81636621 -503.42724609 210.76855469 C-495.1785 159.36294562 -473.348264 110.65513271 -437.45703125 72.609375 C-435.17523963 70.18610504 -432.9883741 67.70559896 -430.8125 65.1875 C-427.7831344 61.7648699 -424.59292539 58.73838493 -421.1015625 55.79296875 C-418.83801946 53.86180471 -416.67715618 51.84038627 -414.5 49.8125 C-341.03111387 -16.2534144 -235.04483092 -33.2430586 0 0 Z " fill="#00A9C2" transform="translate(647,166)"/>
<path d="M0 0 C4.35242033 3.97599479 7.29506021 8.26818049 10.3125 13.3125 C11.03143433 14.50673584 11.03143433 14.50673584 11.76489258 15.72509766 C23.95250085 36.224382 32.43108142 57.82252841 38 81 C38.29366455 82.19665283 38.29366455 82.19665283 38.59326172 83.41748047 C55.18106051 152.50674898 45.61563243 233.63913514 12 296 C11.66178223 296.64163086 11.32356445 297.28326172 10.97509766 297.94433594 C2.97201731 313.08650657 -6.81569096 327.03448619 -18 340 C-18.63421875 340.74507812 -19.2684375 341.49015625 -19.921875 342.2578125 C-31.23089036 355.1886634 -43.4168517 367.57746422 -57.29345703 377.7421875 C-59.04639144 379.03419295 -60.77189566 380.35744528 -62.49609375 381.6875 C-72.48518359 389.31200301 -83.07710478 395.80440405 -94 402 C-94.82741699 402.46937988 -95.65483398 402.93875977 -96.50732422 403.42236328 C-146.75106748 431.56556262 -204.07482632 443.57018648 -261 448 C-262.3619751 448.10803955 -262.3619751 448.10803955 -263.75146484 448.21826172 C-322.59602765 452.64363578 -382.81912091 445.79159414 -440 432 C-441.700354 431.59322021 -441.700354 431.59322021 -443.43505859 431.17822266 C-497.48569911 418.04633425 -550.2433652 396.54021112 -598 368 C-598.87479004 367.47873535 -599.74958008 366.9574707 -600.65087891 366.42041016 C-620.17743347 354.71599114 -638.9863516 341.91919742 -657 328 C-657.5971582 327.54173828 -658.19431641 327.08347656 -658.80957031 326.61132812 C-670.98334767 317.25709048 -682.58736322 307.26533467 -694 297 C-692.30684554 293.10003747 -689.7518217 289.92676575 -687.125 286.625 C-686.64248779 286.01430664 -686.15997559 285.40361328 -685.6628418 284.77441406 C-681.65359757 279.73819989 -677.49087017 274.84442767 -673.27856445 269.9777832 C-669.72561819 265.86869339 -666.2918408 261.68307143 -662.921875 257.421875 C-659.33623264 252.90338259 -655.65876306 248.45931292 -652 244 C-650.49971683 242.16689838 -648.99971592 240.33356573 -647.5 238.5 C-638.5 227.5 -638.5 227.5 -636.23046875 224.7265625 C-634.79500065 222.97182216 -633.36006204 221.21664845 -631.92578125 219.4609375 C-626.68794837 213.0516115 -621.42822781 206.66056804 -616.16455078 200.27246094 C-611.43013237 194.52544938 -606.71073971 188.76644221 -602 183 C-600.50014304 181.16654964 -599.0001406 179.33321829 -597.5 177.5 C-596.7575 176.5925 -596.015 175.685 -595.25 174.75 C-588.5 166.5 -588.5 166.5 -586.26953125 163.78515625 C-584.68977266 161.84648521 -583.12577879 159.89490556 -581.57421875 157.93359375 C-580.78660156 156.94488281 -579.99898437 155.95617187 -579.1875 154.9375 C-578.47980469 154.03902344 -577.77210938 153.14054688 -577.04296875 152.21484375 C-575.053945 150.05848339 -573.61278352 149.2023097 -571 148 C-570.35321289 148.54188965 -570.35321289 148.54188965 -569.69335938 149.09472656 C-559.3604122 157.73097544 -548.86060064 166.03916172 -538 174 C-536.9469165 174.77875488 -536.9469165 174.77875488 -535.87255859 175.57324219 C-456.32186475 234.37391231 -356.19145998 274.36363067 -255.8203125 259.9765625 C-231.03175374 256.00018459 -204.88905206 248.35574386 -186 231 C-185.16082031 230.25234375 -184.32164062 229.5046875 -183.45703125 228.734375 C-173.8671435 219.73932144 -168.0165489 209.60397931 -164.30078125 197.09375 C-162.76115327 193.43193209 -160.9079568 191.6887225 -158 189 C-155.8679044 186.66741483 -153.81192133 184.26966687 -151.75 181.875 C-151.17717285 181.21193848 -150.6043457 180.54887695 -150.01416016 179.86572266 C-146.01355991 175.21874212 -142.10203182 170.50690375 -138.2421875 165.7421875 C-135.69746317 162.62999852 -133.10381775 159.56273503 -130.5 156.5 C-127.12711398 152.53100848 -123.78823226 148.5398282 -120.5 144.5 C-116.75212202 139.8954642 -112.93016556 135.35980809 -109.0859375 130.8359375 C-106.18755177 127.4194046 -103.328449 123.97495162 -100.5 120.5 C-97.21176186 116.46016457 -93.87265239 112.46919573 -90.5 108.5 C-86.44987401 103.7308879 -82.45647887 98.92087568 -78.50390625 94.0703125 C-70.69208052 84.49138111 -62.84027163 74.94770048 -54.83251953 65.53173828 C-51.26971596 61.33671818 -47.78674425 57.08085722 -44.3125 52.8125 C-41.27632634 49.11985636 -38.1815003 45.47878212 -35.0859375 41.8359375 C-32.18755177 38.4194046 -29.328449 34.97495162 -26.5 31.5 C-22.75870283 26.90354919 -18.94441982 22.37500752 -15.10571289 17.86010742 C-11.26749292 13.33757992 -7.51004505 8.7547211 -3.77734375 4.14453125 C-2 2 -2 2 0 0 Z " fill="#008ABE" transform="translate(797,668)"/>
<path d="M0 0 C2.42631296 2.40502952 4.82925056 4.81528015 7.1484375 7.32421875 C46.60471715 49.20325241 123.75394753 61.34893895 177.0625 75.5 C258.64353424 97.16677316 345.91280325 122.34402282 410 180 C410.5765332 180.51481934 411.15306641 181.02963867 411.74707031 181.56005859 C418.2428094 187.37668131 424.43646475 193.26971895 430 200 C430.88986542 201.00703388 431.78198112 202.01208176 432.67578125 203.015625 C433.61764898 204.09334686 434.55905575 205.17147176 435.5 206.25 C435.95850342 206.75789062 436.41700684 207.26578125 436.8894043 207.7890625 C438.15625 209.265625 438.15625 209.265625 440 212 C439.64398912 215.17062347 438.47390497 216.94528408 436.375 219.28515625 C435.83794434 219.89246582 435.30088867 220.49977539 434.74755859 221.12548828 C434.17086426 221.76470215 433.59416992 222.40391602 433 223.0625 C431.80349945 224.41431396 430.60819161 225.76718451 429.4140625 227.12109375 C428.82786133 227.78351074 428.24166016 228.44592773 427.63769531 229.12841797 C425.49164696 231.58095325 423.4261373 234.09277777 421.375 236.625 C418.13270852 240.62738911 414.83606872 244.57595635 411.5 248.5 C408.12711398 252.46899152 404.78823226 256.4601718 401.5 260.5 C398.2117626 264.53983452 394.87268539 268.53083277 391.5 272.5 C386.59454156 278.27542544 381.77971335 284.11992099 377 290 C371.76081592 296.44532718 366.46460425 302.83422912 361.08642578 309.16357422 C358.18780161 312.58020732 355.32859421 316.02486997 352.5 319.5 C348.75212202 324.1045358 344.93016556 328.64019191 341.0859375 333.1640625 C338.18755177 336.5805954 335.328449 340.02504838 332.5 343.5 C328.75212202 348.1045358 324.93016556 352.64019191 321.0859375 357.1640625 C318.18755177 360.5805954 315.328449 364.02504838 312.5 367.5 C309.2117626 371.53983452 305.87268539 375.53083277 302.5 379.5 C297.59450956 385.27546311 292.78192222 391.1216935 288 397 C286.31377838 399.06354879 284.62557579 401.1254667 282.9375 403.1875 C281.80634766 404.57001953 281.80634766 404.57001953 280.65234375 405.98046875 C280.10707031 406.64691406 279.56179688 407.31335938 279 408 C277.73679077 404.35072889 278.37201173 401.76792962 279 398 C280.28047155 376.22783965 278.64324917 354.83640673 263.6875 337.6875 C262.1457614 336.10451087 260.58340017 334.54131645 259 333 C258.28585937 332.26523437 257.57171875 331.53046875 256.8359375 330.7734375 C223.53557719 298.38855101 167.14946518 286.05841652 123.5 273.875 C122.59723328 273.62231354 121.69446655 273.36962708 120.76434326 273.10928345 C111.14862366 270.42486723 101.52120887 267.85053232 91.8125 265.5234375 C89.45500078 264.94614602 87.09796099 264.36700812 84.7409668 263.78765869 C82.55443992 263.26306137 80.36168765 262.77710115 78.16601562 262.29248047 C76.84983915 261.97275788 75.5340572 261.65140507 74.21875 261.328125 C72.5162207 260.93995605 72.5162207 260.93995605 70.77929688 260.54394531 C66.39140976 258.10640156 65.73542173 253.47708708 64.37130928 248.88241005 C63.74267752 246.62121398 63.14754067 244.35348073 62.56176758 242.08081055 C62.33602712 241.21927683 62.11028666 240.35774311 61.87770557 239.47010231 C61.12933205 236.60999811 60.38696313 233.74837051 59.64453125 230.88671875 C59.10955698 228.83780255 58.57417718 226.7889922 58.03842163 224.74028015 C56.89176798 220.3525116 55.74765726 215.96409109 54.6055603 211.57513428 C52.79712392 204.62594005 50.98285363 197.67827811 49.16723633 190.73095703 C48.86216628 189.56357121 48.55709623 188.39618538 48.24278164 187.19342422 C47.62245675 184.81969565 47.00211666 182.44597104 46.38176155 180.07225037 C45.44018052 176.46864019 44.49913706 172.86488998 43.55821228 169.2611084 C37.97104809 147.86562193 32.34318297 126.48098491 26.69882202 105.1005249 C25.44525598 100.35205753 24.19270306 95.6033237 22.94053173 90.85448837 C18.61999929 74.46933821 14.29501289 58.08546314 9.93078041 41.71189117 C8.75700744 37.30643813 7.58609871 32.90022248 6.41445923 28.49420166 C5.53161701 25.18114953 4.6433468 21.86958797 3.75463867 18.55810547 C3.24242388 16.6338561 2.73044294 14.70954445 2.21875 12.78515625 C1.98883865 11.93588058 1.75892731 11.08660492 1.52204895 10.21159363 C0.58328397 6.66116754 0 3.69772069 0 0 Z " fill="#1E2C5E" transform="translate(357,454)"/>
<path d="M0 0 C1.17788086 0.39445312 2.35576172 0.78890625 3.56933594 1.1953125 C20.4641427 6.9114272 36.8207381 13.5031051 53 21 C54.55630127 21.71542969 54.55630127 21.71542969 56.14404297 22.4453125 C89.7978523 37.98183426 121.6629869 57.32158801 151 80 C152.25632547 80.95206702 153.51284694 81.90387543 154.76953125 82.85546875 C156.05525324 83.84040776 157.34041794 84.82607473 158.625 85.8125 C159.22997314 86.26898926 159.83494629 86.72547852 160.45825195 87.19580078 C163.52743104 89.57752241 165.42540019 91.46906505 167 95 C166.3306543 95.9708252 165.66130859 96.94165039 164.97167969 97.94189453 C158.35012258 107.55439353 151.78285936 117.20206201 145.25 126.875 C144.25202019 128.35160783 143.25397161 129.82816918 142.25585938 131.3046875 C140.19309645 134.35626772 138.13062208 137.40804265 136.06835938 140.45996094 C131.68958036 146.93957143 127.30716513 153.41672158 122.92486572 159.89395142 C120.53570301 163.42529663 118.14675892 166.95678972 115.7578125 170.48828125 C115.28378998 171.18900253 114.80976746 171.88972382 114.32138062 172.61167908 C110.94055207 177.60943031 107.56006738 182.60741404 104.1796875 187.60546875 C99.87875852 193.96458423 95.57713144 200.32322694 91.27487183 206.68144226 C88.3631958 210.98467508 85.45247782 215.28855422 82.54232788 219.59281921 C80.6136909 222.44496749 78.68428809 225.29659712 76.75469971 228.14810181 C75.84776395 229.48868565 74.94113849 230.82947948 74.03485107 232.17050171 C65.47762436 244.831844 65.47762436 244.831844 61 251 C56.89301814 250.3819071 53.84894881 248.113476 50.48828125 245.8359375 C49.17274547 244.95963172 47.85715052 244.08341476 46.54150391 243.20727539 C45.85227844 242.74531769 45.16305298 242.28335999 44.45294189 241.80740356 C-36.20443081 187.83074181 -129.28126178 145.14258034 -227.88671875 164.46875 C-228.63433472 164.62190674 -229.38195068 164.77506348 -230.15222168 164.93286133 C-233.84121169 165.67300019 -237.24539577 166.06652161 -241 166 C-241.06607673 165.10400463 -241.13215345 164.20800926 -241.20023251 163.28486252 C-242.81055422 141.44955838 -244.42150715 119.61430089 -246.03315639 97.7790947 C-246.8125329 87.21961449 -247.59169839 76.66011879 -248.37036133 66.10058594 C-249.04930878 56.89331314 -249.72865805 47.68607009 -250.40848309 38.47886205 C-250.76818805 33.60701052 -251.12769637 28.73514467 -251.48672295 23.8632431 C-251.82521272 19.2701076 -252.16424304 14.6770123 -252.50367355 10.08394623 C-252.62761926 8.40549156 -252.75137382 6.72702276 -252.87491417 5.04853821 C-253.53892754 -3.97150609 -254.22493013 -12.98865951 -255 -22 C-169.80479898 -34.8190821 -81.76123984 -27.44306133 0 0 Z " fill="#1E2C5E" transform="translate(647,166)"/>
<path d="M0 0 C4.35242033 3.97599479 7.29506021 8.26818049 10.3125 13.3125 C10.79178955 14.10865723 11.2710791 14.90481445 11.76489258 15.72509766 C23.95250085 36.224382 32.43108142 57.82252841 38 81 C38.19577637 81.79776855 38.39155273 82.59553711 38.59326172 83.41748047 C55.18106051 152.50674898 45.61563243 233.63913514 12 296 C11.66178223 296.64163086 11.32356445 297.28326172 10.97509766 297.94433594 C2.97201731 313.08650657 -6.81569096 327.03448619 -18 340 C-18.63421875 340.74507812 -19.2684375 341.49015625 -19.921875 342.2578125 C-25.08137557 348.15724144 -30.59669835 353.6982331 -36.125 359.25 C-36.8893335 360.01900635 -37.65366699 360.7880127 -38.44116211 361.58032227 C-40.60816527 363.74122318 -42.79502435 365.87790279 -45 368 C-45.6506543 368.63228516 -46.30130859 369.26457031 -46.97167969 369.91601562 C-48.8046875 371.609375 -48.8046875 371.609375 -52 374 C-60.60712997 372.96133196 -68.97941906 362.23197663 -75.15966797 356.44628906 C-79.37232647 352.52179287 -83.7633249 348.88154039 -88.25390625 345.27734375 C-91.79678299 342.33922549 -95.15441772 339.21768822 -98.52197266 336.08349609 C-101.73316873 333.11269934 -105.02636841 330.30031679 -108.4375 327.5625 C-113.21621628 323.71889943 -117.69157687 319.63039836 -122.16381836 315.44165039 C-125.51099327 312.32446055 -128.93005023 309.36426202 -132.5 306.5 C-137.26108478 302.68005989 -141.71273025 298.61061181 -146.1640625 294.44140625 C-149.51116869 291.32431446 -152.93014141 288.36418887 -156.5 285.5 C-161.26108478 281.68005989 -165.71273025 277.61061181 -170.1640625 273.44140625 C-174.3446886 269.54807436 -178.7025766 265.94110598 -183.16015625 262.3671875 C-187.10444715 259.07937418 -190.84891486 255.59232842 -194.5859375 252.07226562 C-196.7810891 250.01123177 -198.93964773 248.04380247 -201.37890625 246.2734375 C-202.18134766 245.64308594 -202.18134766 245.64308594 -203 245 C-203 244.34 -203 243.68 -203 243 C-201.41775101 241.91408387 -199.78079588 240.9075854 -198.125 239.9375 C-181.99560629 229.9368618 -169.01388049 215.24331012 -164.1171875 196.69140625 C-162.69114219 193.25593347 -160.71136206 191.53951517 -158 189 C-155.86918099 186.66622909 -153.81193189 184.26967914 -151.75 181.875 C-151.17717285 181.21193848 -150.6043457 180.54887695 -150.01416016 179.86572266 C-146.01355991 175.21874212 -142.10203182 170.50690375 -138.2421875 165.7421875 C-135.69746317 162.62999852 -133.10381775 159.56273503 -130.5 156.5 C-127.12711398 152.53100848 -123.78823226 148.5398282 -120.5 144.5 C-116.75212202 139.8954642 -112.93016556 135.35980809 -109.0859375 130.8359375 C-106.18755177 127.4194046 -103.328449 123.97495162 -100.5 120.5 C-97.21176186 116.46016457 -93.87265239 112.46919573 -90.5 108.5 C-86.44987401 103.7308879 -82.45647887 98.92087568 -78.50390625 94.0703125 C-70.69208052 84.49138111 -62.84027163 74.94770048 -54.83251953 65.53173828 C-51.26971596 61.33671818 -47.78674425 57.08085722 -44.3125 52.8125 C-41.27632634 49.11985636 -38.1815003 45.47878212 -35.0859375 41.8359375 C-32.18755177 38.4194046 -29.328449 34.97495162 -26.5 31.5 C-22.75870283 26.90354919 -18.94441982 22.37500752 -15.10571289 17.86010742 C-11.26749292 13.33757992 -7.51004505 8.7547211 -3.77734375 4.14453125 C-2 2 -2 2 0 0 Z " fill="#00A9C2" transform="translate(797,668)"/>
<path d="M0 0 C3.73353067 1.29636482 6.14777691 2.78147487 9 5.5 C14.1203566 10.18386718 19.54332171 14.40059283 25.08789062 18.56347656 C26.39636641 19.54650408 27.7022387 20.53300396 29.00585938 21.52246094 C97.03648467 73.09813926 174.03129223 108.28347017 260 114 C260 114.99 260 115.98 260 117 C258.6015625 118.34350586 258.6015625 118.34350586 256.625 119.71484375 C255.89547119 120.22974365 255.16594238 120.74464355 254.41430664 121.27514648 C253.61758545 121.82372314 252.82086426 122.3722998 252 122.9375 C250.33110575 124.11327077 248.66315399 125.29038034 246.99609375 126.46875 C245.73128174 127.35820313 245.73128174 127.35820313 244.44091797 128.265625 C240.93222268 130.75870075 237.49410696 133.3398396 234.0625 135.9375 C225.89658955 142.09531613 217.6634153 148.15972158 209.42333984 154.21777344 C205.44677489 157.1423074 201.47349592 160.07129832 197.5 163 C192.71651327 166.52571284 187.93228049 170.05038925 183.14453125 173.5703125 C175.73980537 179.01636895 168.34575634 184.47457766 161 190 C152.8501105 196.13028521 144.6397739 202.17710259 136.42333984 208.21777344 C132.44677489 211.1423074 128.47349592 214.07129832 124.5 217 C119.71651327 220.52571284 114.93228049 224.05038925 110.14453125 227.5703125 C103.34452376 232.57146685 96.54528938 237.57311827 89.79394531 242.63989258 C88.48620749 243.62005142 87.17570685 244.59653624 85.86230469 245.5690918 C82.41527208 248.13181395 79.05991945 250.76248107 75.765625 253.51953125 C75.06203857 254.09106934 74.35845215 254.66260742 73.63354492 255.25146484 C72.29000868 256.34523607 70.96557382 257.46306543 69.6652832 258.60791016 C65.28558083 262.1183807 65.28558083 262.1183807 61.93994141 261.81030273 C59.5244548 261.04168959 57.29979537 260.06588117 55 259 C53.15230444 258.26115713 51.30326328 257.52567335 49.453125 256.79296875 C15.03550343 242.46042602 -17.90633856 225.64191062 -49 205 C-50.25248535 204.16855469 -50.25248535 204.16855469 -51.53027344 203.3203125 C-62.63183136 195.91057702 -73.42526736 188.14207365 -84 180 C-84.60150879 179.53883789 -85.20301758 179.07767578 -85.82275391 178.60253906 C-97.99172455 169.25098213 -109.59143586 159.26167145 -121 149 C-119.30684554 145.10003747 -116.7518217 141.92676575 -114.125 138.625 C-113.64248779 138.01430664 -113.15997559 137.40361328 -112.6628418 136.77441406 C-108.65359757 131.73819989 -104.49087017 126.84442767 -100.27856445 121.9777832 C-96.72561819 117.86869339 -93.2918408 113.68307143 -89.921875 109.421875 C-86.33623264 104.90338259 -82.65876306 100.45931292 -79 96 C-77.49971683 94.16689838 -75.99971592 92.33356573 -74.5 90.5 C-65.5 79.5 -65.5 79.5 -63.23046875 76.7265625 C-61.79500065 74.97182216 -60.36006204 73.21664845 -58.92578125 71.4609375 C-53.68794837 65.0516115 -48.42822781 58.66056804 -43.16455078 52.27246094 C-38.43013237 46.52544938 -33.71073971 40.76644221 -29 35 C-27.50014304 33.16654964 -26.0001406 31.33321829 -24.5 29.5 C-23.7575 28.5925 -23.015 27.685 -22.25 26.75 C-15.5 18.5 -15.5 18.5 -13.27734375 15.78515625 C-11.68395541 13.8364669 -10.09300977 11.88577883 -8.50390625 9.93359375 C-7.69824219 8.94488281 -6.89257812 7.95617187 -6.0625 6.9375 C-4.96615234 5.58978516 -4.96615234 5.58978516 -3.84765625 4.21484375 C-2 2 -2 2 0 0 Z " fill="#005489" transform="translate(224,816)"/>
<path d="M0 0 C3.71478942 4.33392099 6.50017575 9.03324756 9.375 13.9375 C13.73408765 21.28835659 18.20435247 28.55269179 22.8125 35.75 C33.80499916 52.9295757 44.55578364 70.25510385 55.2277832 87.63525391 C59.60278796 94.75218481 64.02564616 101.83599604 68.49951172 108.89111328 C72.46238289 115.14092186 76.39252405 121.41070397 80.3125 127.6875 C80.94220703 128.69554687 81.57191406 129.70359375 82.22070312 130.7421875 C85.41487235 135.85675755 88.60665192 140.97281153 91.796875 146.08984375 C93.0520593 148.10157749 94.30726747 150.11329635 95.5625 152.125 C96.17270996 153.10452637 96.78291992 154.08405273 97.41162109 155.09326172 C100.58947775 160.18405192 103.79749122 165.25251609 107.0546875 170.29296875 C107.70622803 171.30407715 108.35776855 172.31518555 109.02905273 173.35693359 C110.27524347 175.28687923 111.52711844 177.21316962 112.78540039 179.13525391 C113.3396167 179.99425293 113.89383301 180.85325195 114.46484375 181.73828125 C114.955896 182.49149658 115.44694824 183.24471191 115.95288086 184.02075195 C117 186 117 186 117 189 C115.63671875 190.20410156 115.63671875 190.20410156 113.6875 191.390625 C112.95402344 191.84501953 112.22054687 192.29941406 111.46484375 192.76757812 C110.65144531 193.25677734 109.83804688 193.74597656 109 194.25 C107.24996804 195.32807312 105.49996962 196.40620069 103.75 197.484375 C102.81542969 198.05478516 101.88085938 198.62519531 100.91796875 199.21289062 C95.92265658 202.27226856 90.96422707 205.39053909 86 208.5 C83.95451108 209.77747826 81.90893885 211.05482312 79.86328125 212.33203125 C72.32364964 217.04445453 64.80732587 221.79344657 57.29443359 226.54833984 C52.5692617 229.53789848 47.8406762 232.52205616 43.11279297 235.50732422 C39.21605486 237.96804365 35.32002812 240.42987083 31.42578125 242.89453125 C21.60928182 249.10496966 11.76802588 255.27466971 1.91455078 261.42626953 C-6.64373635 266.77160393 -15.17931603 272.15209443 -23.70556641 277.54833984 C-26.84163133 279.53248988 -29.97936108 281.51399855 -33.1171875 283.49536133 C-34.69411805 284.49112188 -36.27094258 285.48705035 -37.84765625 286.4831543 C-41.96596054 289.08488619 -46.0855697 291.68452204 -50.20703125 294.28125 C-51.48900391 295.08949219 -51.48900391 295.08949219 -52.796875 295.9140625 C-54.42538551 296.94073217 -56.05426769 297.96681261 -57.68359375 298.9921875 C-60.96507522 301.06169323 -64.22316572 303.14243513 -67.41796875 305.34375 C-70 307 -70 307 -72 307 C-97.91949826 236.19013667 -92.068638 149.63603974 -60.8215332 81.70141602 C-49.64925597 57.9994145 -35.44803355 36.68171298 -17.4609375 17.61328125 C-15.15790066 15.16767546 -12.94835392 12.6644778 -10.75 10.125 C-7.43107741 6.36035433 -3.89324433 3.16326102 0 0 Z " fill="#1E2C5E" transform="translate(227,221)"/>
<path d="M0 0 C1.25207372 16.6502141 2.50410118 33.30043167 3.75607777 49.95065308 C4.28073512 56.92813647 4.8053959 63.9056196 5.33009899 70.88309956 C5.44407665 72.39878473 5.55805131 73.91447013 5.67202294 75.43015575 C5.95442902 79.1857873 6.23687934 82.94141551 6.51942253 86.69703674 C7.07300518 94.0561598 7.62574684 101.41534441 8.17678833 108.7746582 C8.38940752 111.61280036 8.60213289 114.45093453 8.81494141 117.2890625 C8.866346 117.97473738 8.91775059 118.66041225 8.9707129 119.36686516 C9.62961447 128.14945477 10.30350679 136.93074651 10.99365234 145.7109375 C11.20593569 148.43763593 11.41779335 151.16436702 11.62946129 153.89111328 C11.81457357 156.25198786 12.00579824 158.61230648 12.19746399 160.97265625 C12.9096075 170.00819896 13.1388438 178.9417876 13 188 C11.93523437 188.40089844 10.87046875 188.80179688 9.7734375 189.21484375 C-4.75302217 194.83961819 -16.86173231 201.92193917 -28 213 C-28.62261719 213.5878125 -29.24523437 214.175625 -29.88671875 214.78125 C-43.08545325 228.30624536 -46.33495413 247.01750462 -48 265 C-50.34381795 261.97891142 -52.37954093 258.85286028 -54.37109375 255.58984375 C-55.02150635 254.52749512 -55.67191895 253.46514648 -56.34204102 252.37060547 C-56.68357208 251.81097107 -57.02510315 251.25133667 -57.37698364 250.67474365 C-59.18135559 247.71898188 -60.99283114 244.76758429 -62.8046875 241.81640625 C-63.16633499 241.22722412 -63.52798248 240.63804199 -63.90058899 240.03100586 C-66.91744294 235.12188977 -69.97608674 230.24060212 -73.0625 225.375 C-79.44978703 215.30365977 -85.76618962 205.1886443 -92.08105469 195.07177734 C-93.96048007 192.06326206 -95.84297196 189.05669021 -97.7265625 186.05078125 C-104.25811022 175.62334326 -110.74992698 165.17325419 -117.1875 154.6875 C-122.23760629 146.4627995 -127.32705586 138.26653639 -132.49511719 130.11547852 C-137.7753969 121.78703734 -143.00501621 113.42735974 -148.21484375 105.0546875 C-150.74082854 100.99924932 -153.29767229 96.96579182 -155.87890625 92.9453125 C-156.48871338 91.98608887 -157.09852051 91.02686523 -157.72680664 90.03857422 C-158.88400641 88.218729 -160.05076072 86.40491411 -161.22827148 84.59814453 C-161.74075439 83.78716309 -162.2532373 82.97618164 -162.78125 82.140625 C-163.23564453 81.43454102 -163.69003906 80.72845703 -164.15820312 80.00097656 C-165 78 -165 78 -164.79882812 75.90332031 C-163.43513 72.65411782 -160.65311766 70.6992949 -158 68.5 C-157.37770508 67.97736572 -156.75541016 67.45473145 -156.11425781 66.91625977 C-114.67030864 32.66501973 -64.07546681 12.40086915 -12 1 C-11.19804199 0.80792969 -10.39608398 0.61585938 -9.56982422 0.41796875 C-6.3597666 -0.10413068 -3.24748599 -0.02540414 0 0 Z " fill="#008ABE" transform="translate(393,145)"/>
<path d="M0 0 C2.11089928 3.66914721 3.01325897 7.5746636 3.99267578 11.65258789 C4.27694475 12.81092196 4.27694475 12.81092196 4.56695652 13.99265671 C5.19773311 16.56820993 5.82155228 19.14539554 6.4453125 21.72265625 C6.8914469 23.55109358 7.33797324 25.37943533 7.78486633 27.20768738 C8.98739823 32.13307526 10.18367834 37.05996198 11.37861252 41.98719788 C12.37678263 46.09990709 13.37850801 50.21174703 14.38017178 54.32360649 C21.11378946 81.96893345 27.77114331 109.63217111 34.35620117 137.31323242 C34.98743331 139.96664224 35.61869188 142.62004576 36.25 145.2734375 C36.40404612 145.92095034 36.55809223 146.56846317 36.71680641 147.23559761 C40.26058576 162.12747835 43.85299867 177.00752961 47.45568848 191.88525391 C47.93248795 193.85430163 48.40912992 195.82338742 48.88574219 197.79248047 C51.89091287 210.20575895 54.90306199 222.61727882 57.9375 235.0234375 C58.15660538 235.92017181 58.37571075 236.81690613 58.60145569 237.74081421 C59.58605984 241.77049611 60.57258185 245.79967709 61.56420898 249.82763672 C61.89575744 251.18194488 62.22722517 252.53627281 62.55859375 253.890625 C62.98096313 255.60813965 62.98096313 255.60813965 63.41186523 257.36035156 C64 260 64 260 64 262 C24.22831496 249.33412105 -14.37361205 227.98715468 -49 205 C-50.25248535 204.16855469 -50.25248535 204.16855469 -51.53027344 203.3203125 C-62.63183136 195.91057702 -73.42526736 188.14207365 -84 180 C-84.60150879 179.53883789 -85.20301758 179.07767578 -85.82275391 178.60253906 C-97.99172455 169.25098213 -109.59143586 159.26167145 -121 149 C-119.30684554 145.10003747 -116.7518217 141.92676575 -114.125 138.625 C-113.64248779 138.01430664 -113.15997559 137.40361328 -112.6628418 136.77441406 C-108.65359757 131.73819989 -104.49087017 126.84442767 -100.27856445 121.9777832 C-96.72561819 117.86869339 -93.2918408 113.68307143 -89.921875 109.421875 C-86.33623264 104.90338259 -82.65876306 100.45931292 -79 96 C-77.49971683 94.16689838 -75.99971592 92.33356573 -74.5 90.5 C-65.5 79.5 -65.5 79.5 -63.23046875 76.7265625 C-61.79500065 74.97182216 -60.36006204 73.21664845 -58.92578125 71.4609375 C-53.68794837 65.0516115 -48.42822781 58.66056804 -43.16455078 52.27246094 C-38.43013237 46.52544938 -33.71073971 40.76644221 -29 35 C-27.50014304 33.16654964 -26.0001406 31.33321829 -24.5 29.5 C-23.7575 28.5925 -23.015 27.685 -22.25 26.75 C-15.5 18.5 -15.5 18.5 -13.27734375 15.78515625 C-11.68395541 13.8364669 -10.09300977 11.88577883 -8.50390625 9.93359375 C-7.69824219 8.94488281 -6.89257812 7.95617187 -6.0625 6.9375 C-4.96615234 5.58978516 -4.96615234 5.58978516 -3.84765625 4.21484375 C-2 2 -2 2 0 0 Z " fill="#1E2C5E" transform="translate(224,816)"/>
<path d="M0 0 C-5.74417096 9.1435842 -11.69604333 18.14237373 -17.6875 27.125 C-18.17688049 27.85943329 -18.66626099 28.59386658 -19.17047119 29.35055542 C-24.92033962 37.97488829 -30.71264156 46.55424512 -36.74951172 54.98120117 C-41.42798701 61.53686292 -45.86494573 68.24843269 -50.31713867 74.95898438 C-56.22652247 83.85918101 -62.19714601 92.71665792 -68.1875 101.5625 C-68.67052582 102.27579468 -69.15355164 102.98908936 -69.6512146 103.72399902 C-71.6156661 106.6245907 -73.58039472 109.52499424 -75.54563904 112.42504883 C-78.52919832 116.82785437 -81.51044577 121.23221187 -84.48939514 125.63813782 C-86.40986647 128.47849693 -88.33105862 131.31836806 -90.25234985 134.15817261 C-91.1562569 135.49450971 -92.05988949 136.83103251 -92.96322632 138.16775513 C-101.52211794 150.831489 -101.52211794 150.831489 -106 157 C-110.10698186 156.3819071 -113.15105119 154.113476 -116.51171875 151.8359375 C-117.82725453 150.95963172 -119.14284948 150.08341476 -120.45849609 149.20727539 C-121.14772156 148.74531769 -121.83694702 148.28335999 -122.54705811 147.80740356 C-189.75876667 102.82870493 -264.06015642 66.93863228 -346.1875 64.4375 C-347.53451468 64.39417354 -348.88152001 64.35055552 -350.22851562 64.30664062 C-353.48559727 64.20157348 -356.74274197 64.09942166 -360 64 C-360 63.67 -360 63.34 -360 63 C-359.38582718 62.89248413 -358.77165436 62.78496826 -358.13887024 62.67419434 C-327.46354892 57.30366588 -296.79182873 51.91458139 -266.13336182 46.44854736 C-259.67683718 45.29773062 -253.21945283 44.15182123 -246.76171875 43.0078125 C-224.48289305 39.06238137 -224.48289305 39.06238137 -202.21875 35.03515625 C-201.33186493 34.87293076 -200.44497986 34.71070526 -199.53121948 34.54356384 C-197.73481764 34.2148708 -195.93842076 33.88615065 -194.14202881 33.55740356 C-193.2495343 33.39408539 -192.35703979 33.23076721 -191.4375 33.0625 C-190.54291077 32.89877899 -189.64832153 32.73505798 -188.72662354 32.56637573 C-172.50859225 29.60217785 -156.26676881 26.78634134 -140.0178833 23.99691772 C-122.90723237 21.05665322 -105.82664808 17.97503838 -88.75662231 14.80804443 C-72.73957691 11.83855327 -56.70099111 9.02900887 -40.63671875 6.32739258 C-31.03137442 4.70908858 -21.44444544 3.03471046 -11.90332031 1.06518555 C-7.85431678 0.24926659 -4.12168776 -0.05856427 0 0 Z " fill="#005388" transform="translate(814,260)"/>
<path d="M0 0 C2.39453125 2.36328125 2.39453125 2.36328125 4.8125 5.3125 C6.02873047 6.76076172 6.02873047 6.76076172 7.26953125 8.23828125 C9 11 9 11 8.7722168 12.96728516 C7.92485205 15.19781279 6.96425959 16.51343988 5.375 18.28515625 C4.83794434 18.89246582 4.30088867 19.49977539 3.74755859 20.12548828 C2.88251709 21.08430908 2.88251709 21.08430908 2 22.0625 C0.80349945 23.41431396 -0.39180839 24.76718451 -1.5859375 26.12109375 C-2.17213867 26.78351074 -2.75833984 27.44592773 -3.36230469 28.12841797 C-5.50835304 30.58095325 -7.5738627 33.09277777 -9.625 35.625 C-12.86729148 39.62738911 -16.16393128 43.57595635 -19.5 47.5 C-22.87288602 51.46899152 -26.21176774 55.4601718 -29.5 59.5 C-32.7882374 63.53983452 -36.12731461 67.53083277 -39.5 71.5 C-44.40545844 77.27542544 -49.22028665 83.11992099 -54 89 C-59.23918408 95.44532718 -64.53539575 101.83422912 -69.91357422 108.16357422 C-72.81219839 111.58020732 -75.67140579 115.02486997 -78.5 118.5 C-82.24787798 123.1045358 -86.06983444 127.64019191 -89.9140625 132.1640625 C-92.81244823 135.5805954 -95.671551 139.02504838 -98.5 142.5 C-102.24787798 147.1045358 -106.06983444 151.64019191 -109.9140625 156.1640625 C-112.81244823 159.5805954 -115.671551 163.02504838 -118.5 166.5 C-121.7882374 170.53983452 -125.12731461 174.53083277 -128.5 178.5 C-133.40549044 184.27546311 -138.21807778 190.1216935 -143 196 C-144.68622162 198.06354879 -146.37442421 200.1254667 -148.0625 202.1875 C-148.81660156 203.10917969 -149.57070313 204.03085937 -150.34765625 204.98046875 C-150.89292969 205.64691406 -151.43820312 206.31335938 -152 207 C-153.26320923 203.35072889 -152.62798827 200.76792962 -152 197 C-150.71952845 175.22783965 -152.35675083 153.83640673 -167.3125 136.6875 C-168.8542386 135.10451087 -170.41659983 133.54131645 -172 132 C-172.71414063 131.26523437 -173.42828125 130.53046875 -174.1640625 129.7734375 C-190.02640926 114.347169 -212.0553012 105.77517569 -232 97 C-232 96.34 -232 95.68 -232 95 C-230.906875 94.54375244 -229.81375 94.08750488 -228.6875 93.61743164 C-208.81069882 85.31898656 -188.94271032 77.00124274 -169.125 68.5625 C-155.03022209 62.56095103 -140.9266629 56.58083215 -126.8125 50.625 C-125.40729095 50.03200607 -125.40729095 50.03200607 -123.97369385 49.42703247 C-119.21777076 47.42014744 -114.46170343 45.41360452 -109.70556641 43.40722656 C-101.23548916 39.83392686 -92.76671986 36.25752971 -84.29785156 32.68136597 C-81.51634314 31.50690073 -78.73474789 30.33264136 -75.953125 29.15844727 C-67.18956528 25.45898859 -58.42659392 21.75815232 -49.66543579 18.05300903 C-45.54083379 16.30878073 -41.41593601 14.56525254 -37.29101562 12.82177734 C-35.33041856 11.99286262 -33.36996545 11.16360733 -31.40966797 10.33398438 C-28.68623995 9.18142021 -25.96231142 8.03004639 -23.23828125 6.87890625 C-22.44855423 6.544319 -21.65882721 6.20973175 -20.84516907 5.86500549 C-19.33736419 5.22834332 -17.82770408 4.596054 -16.31607056 3.96853638 C-14.6521453 3.27271468 -12.995497 2.5593953 -11.34384155 1.83493042 C-10.46233429 1.45877594 -9.58082703 1.08262146 -8.67260742 0.69506836 C-7.47507088 0.17329262 -7.47507088 0.17329262 -6.25334167 -0.35902405 C-3.6702879 -1.0937885 -2.47143995 -1.00267692 0 0 Z " fill="#005489" transform="translate(788,655)"/>
</svg>
